<svg width="159" height="181" viewBox="0 0 159 181" fill="none" xmlns="http://www.w3.org/2000/svg">
<path d="M163.627 -5.4082L163.624 75.5596L140.975 75.3884L140.744 75.3873C135.388 75.3873 130.13 76.8399 125.525 79.5952L119.998 82.9049L114.238 76.4001C113.774 75.8788 113.255 75.4049 112.691 74.9905C110.559 73.4222 107.946 72.7818 105.335 73.1852C102.723 73.5886 100.422 74.9872 98.859 77.1242L95.246 82.0617L90.3707 64.2183C89.5153 61.0827 87.0216 58.6801 83.8572 57.9494C81.568 57.4248 79.2107 57.8193 77.2184 59.0702C75.2261 60.3201 73.8407 62.273 73.314 64.5677L68.9171 83.7359L66.2101 71.5618C65.4305 68.0647 62.8203 65.2521 59.3997 64.2238C56.8653 63.46 54.1902 63.7311 51.8636 64.9876C49.536 66.2429 47.835 68.3303 47.0741 70.8685L43.8482 81.633L41.7074 75.1426C40.3627 71.0724 36.5881 68.3391 32.3121 68.3391H26.3879C23.3522 68.3391 20.8904 70.8057 20.8904 73.8498C20.8904 76.8939 23.3522 79.3604 26.3879 79.3604H31.5171L37.7866 98.3633C38.9301 101.821 42.6695 103.708 46.1242 102.561C48.1638 101.885 49.7504 100.247 50.3672 98.1859L56.3936 78.0786L62.4112 105.136C62.795 106.86 63.8241 108.331 65.3129 109.279C66.3827 109.961 67.5987 110.311 68.8379 110.311C69.3195 110.311 69.8066 110.259 70.2881 110.151C72.7489 109.6 74.7082 107.652 75.2799 105.179L82.0727 75.5702L85.8451 89.3733C86.4642 91.6447 87.9309 93.5382 89.9716 94.7053C92.0123 95.8703 94.384 96.169 96.6501 95.5496C98.5566 95.0272 100.251 93.8578 101.421 92.2597L106.921 84.7421L111.776 90.223C115.28 94.1741 121.105 95.0757 125.634 92.3666L131.162 89.058C134.102 87.2979 137.41 86.3854 140.89 86.4096L163.624 86.5809L163.627 186.304H-5.49771V-5.4082H163.627Z" fill="#EBEBEB"/>
</svg>
